<?xml version="1.0" encoding="utf-8"?>
<!-- Generator: Adobe Illustrator 16.0.0, SVG Export Plug-In . SVG Version: 6.00 Build 0)  -->
<!DOCTYPE svg PUBLIC "-//W3C//DTD SVG 1.1//EN" "http://www.w3.org/Graphics/SVG/1.1/DTD/svg11.dtd">
<svg version="1.1" id="Layer_1" xmlns="http://www.w3.org/2000/svg" xmlns:xlink="http://www.w3.org/1999/xlink" x="0px" y="0px"
	 width="595.275px" height="595.279px" viewBox="0 0 595.275 595.279" enable-background="new 0 0 595.275 595.279"
	 xml:space="preserve">
<g>
	<path fill="#C31A2E" d="M433.207,495.254c-3.138,0-5.394-0.896-6.429-1.41c-0.004-0.616,0.332-1.54,0.762-2.209
		c1.771-2.131,4.995-6.438,6.428-9.731l0.943-2.177l0.109-2.372c0.161-3.493-0.918-7.47-1.136-8.231l-0.147-0.516l-0.188-0.502
		c-0.82-2.168-5.461-13.359-16.288-20.738c-11.537-7.869-15.218-10.052-22.104-11.75c-1.958-0.479-4.182-1.575-6.446-3.171
		l-9.282-6.543l-7.675,8.376c-4.036,4.408-9.723,10.946-11.59,13.095l-0.55,0.626c-0.958,1.102-1.805,2.07-2.495,2.853
		c-2.562,2.911-5.657,3.978-7.807,4.363l-1.546,0.276l-1.437,0.643c-0.131,0.059-0.521,0.192-1.336,0.192
		c-0.418,0-0.904-0.039-1.441-0.112l-7.46-1.059c0,0-4.843,6.295-4.965,6.457l-0.992,1.327l-0.629,1.535
		c-0.858,2.104-4.428,9.062-14.225,10.211c-1.803,0.21-3.533,0.316-5.128,0.316c-4.349,0-7.112-0.767-8.729-1.465
		c2.729-3.271,5.929-8.815,6.925-10.587l1.022-1.817l0.398-2.05c0.2-0.914,0.782-2.761,2.435-6.473
		c1.12-2.521,63.87-30.712,67.033-33.521l-69.104-87.481l-24.777,34.33c-0.907,0.069,22.098,56.188,21.335,56.342
		c-0.824,0.153-1.521,0.315-2.127,0.496l-0.76,0.225l-0.727,0.314c-0.356,0.155-0.703,0.322-1.05,0.502
		c-1.445,0.714-3.519,1.699-11.177,3.729c-3.128,0.833-6.057,1.252-8.714,1.252c-5.597,0-8.247-1.836-8.705-2.188
		c-1.309-1.438-1.663-2.566-1.72-2.977c0.521-0.413,2.86-2.066,10.578-5.438l17.165-7.496l-13.112-13.373
		c-5.047-5.146-13.499-11.586-19.639-15.687l-0.473-0.315l-0.498-0.271c-1.17-0.643-11.618-6.312-18.195-8.137
		c-5.809-1.607-9.712-3.281-10.654-3.702c-0.897-0.623-6.87-5.093-4.24-11.95c0.245-0.639,49.832-35.967,52.708-39.333h-47.378
		c-2.121,1.399-21.807,16.35-22.644,16.659c-2.833,1.043-8.065,1.264-11.957,1.264c-3.896,0-7.105-0.223-7.46-0.248l-0.167-0.013
		c-1.775-0.164-6.312-0.482-10.974-0.482c-2.623,0-5.026,0.1-7.143,0.289c-0.307,0.027-0.641,0.064-0.979,0.104l-15.95,1.821
		l5.104,15.198c0.944,2.762,1.966,5.551,3.03,8.289l1.96,5.036l4.966,2.138c2.527,1.09,4.688,2.957,6.057,4.334l3.995,4.021
		l5.663-0.22c1.599-0.062,3.107-0.218,4.096-0.337l0.868-0.104l0.845-0.221c0.111-0.028,0.417-0.099,0.854-0.099
		c3.977,0,6.837,5.152,8.188,8.226c3.154,7.178,3.26,12.552,2.915,15.522c-5.57-2.855-12.532-4.649-17.738-5.691l-5.433-1.087
		l-4.531,3.188c-1.556,1.095-3.267,1.649-5.085,1.649c-2.252,0-4.707-0.836-7.296-2.485c-0.524-0.334-1.008-0.656-1.476-0.978
		l-38.021-53.976c3.573,4.854,1.86,57.753,1.956,59.858c-4.981,5.506,10.534,33.546,6.812,34.615
		c-0.958-9.829-7.831-16.602-12.108-19.221c-0.636-0.461-5.295-4.009-6.884-9.899c-1.097-4.072-1.074-14.271,0.055-25.394
		c0.21-1.548,1.668-13.307-1.599-20.256l-0.83-1.765l-1.314-1.441c-1.517-1.663-1.759-4.033-0.722-7.044
		c0.782-2.263,2.039-4.103,2.283-4.448l0.168-0.236l0.157-0.246c0.76-1.188,7.653-11.757,15.747-17.318
		c1.171-0.803,39.953-15.105,41.608-15.874l-0.84-21.045c-0.075-0.003-43.254,9.807-47.902,5.384
		c-1.634-1.554-3.071-3.108-3.99-4.14l-1.048-1.175l-1.297-0.888c-2.077-1.422-7.414-4.944-12.091-6.947
		c-2.45-1.051-5.848-4.104-9.081-8.172l-2.453-3.084l-3.758-1.188c-2.679-0.849-5.735-3.862-8.384-8.272l-2.731-4.547l-5.14-1.312
		c-9.542-2.438-11.404-9.716-11.585-10.536l-0.067-0.306l-0.082-0.3c-1.244-4.588-2.081-9.183-2.081-11.433
		c0-2.502-0.457-5.421-0.841-7.429l-0.462-2.417l-1.317-2.078c-0.879-1.384-1.116-5.194,1.097-11.394
		c1.862-5.221,5.794-12.6,11.074-20.783l7.567-11.729l-6.683-3.605c1.667-0.275,3.337-0.417,4.996-0.417
		c1.884,0,3.724,0.179,5.468,0.526l5.33,1.069l4.489-3.066c9.346-6.384,18.518-10.392,20.232-11.119l3.497,0.477l3.35-1.411
		c1.349-0.581,2.801-1.17,4.188-1.718l4.96-1.957l2.134-4.888c0.397-0.91,0.924-1.812,1.284-2.415
		c3.332-5.524,7.646-9.582,9.27-10.049l0.897-0.196l0.829-0.312c4.874-1.815,16.407-8.967,16.896-9.271l0.885-0.549l0.785-0.685
		c8.228-7.171,11.583-8.146,11.614-8.154l0.947-0.157l0.821-0.274c4.383-1.421,13.329-6.479,14.295-7.026
		c1.491-0.647,20.214-8.525,48.453-8.525c7.438,0,15,0.546,22.473,1.617c32.252,4.627,50.522,14.03,57.188,18.083l-7.811,4.261
		l16.479,12.006c4.438,3.232,8.164,6.751,11.069,10.455c6.678,8.504,8.762,19.167,9.407,24.767l0.571,4.936l3.73,3.278
		c9.613,8.447,14.438,20.681,16.064,25.548l1.216,3.639l3.004,2.383c4.813,3.816,17.58,14.527,32.14,31.487
		c13.43,15.645,21.065,29.237,24.425,35.948l2.406,4.812l5.105,1.679c10.709,3.521,19.573,8.619,19.663,8.67
		c0.167,0.099,12.627,7.423,22.949,19.771c3.986,4.766,8.127,7.893,12.308,9.298l5.943,1.997l5.244-3.437
		c3.05-1.996,5.904-2.299,6.706-2.343l0.312-0.017l0.312-0.032c0.052-0.006,0.331-0.033,0.783-0.033
		c1.512,0,4.475,0.326,7.348,2.507l1.755,1.331l2.098,0.677c2.178,0.698,4.911,1.056,8.13,1.056c1.041,0,2.107-0.04,3.12-0.104
		c-1.106,1.729-2.97,3.635-5.383,5.456c-4.489,3.396-8.807,5.029-11.35,5.432c-0.587,0.092-1.179,0.138-1.779,0.138
		c-3.075,0-5.58-1.218-7.14-2.239l-2.819-1.849l-3.364-0.233c-3.193-0.221-9.419-1.085-15.2-4.385l-41.056-38.396l21.825,51.042
		c0.163,1.466,0.245,2.48,0.272,2.827c0.131,1.838,1.517,18.906,7.635,25.84l0.171,0.19c3.545,3.86,6.304,7.619,7.633,9.517
		l2.187,3.117l3.524,1.437c4.464,1.813,8.477,6.813,11.295,14.08c3.729,9.61,6.817,15.72,8.75,19.147l1.851,3.279l3.319,1.771
		c4.785,2.555,9.361,6.312,10.636,8.217c0.448,0.678,0.608,1.232,0.468,1.644l-1.045,3.011l0.477,3.152
		c1.163,7.69,4.738,15.26,6.769,19.086l1.419,2.679l2.463,1.769c0.746,0.536,1.519,1.63,1.954,2.759
		c0.124,0.588,1.554,7.814-1.131,16.238c-1.809,5.664-5.684,10.041-8.217,12.44c-1.32-3.564-3.334-7.39-4.983-10.271l-1.353-2.358
		l-2.112-1.562l-0.062-0.097c-0.669-1.023-2.493-3.688-7.195-10.026c-4.485-6.063-5.78-13.339-6.13-16.186l-0.295-2.406
		l-1.146-2.137c-1.582-2.943-5.045-8.977-10.465-16.293c-7.072-9.561-14.198-17.535-15.526-19.007l-0.067-0.075
		c-0.438-0.49-9.351-10.398-15.81-13.611l-2.016-1.002l-2.234-0.263c-3.494-0.407-5.807-2.084-6.874-3.046l-1.165-1.05l-1.38-0.741
		c-4.822-2.586-14.083-7.515-21.937-11.476l-21.858-11.026l3.25,24.268c0.274,2.064,0.272,3.127,0.259,3.513l-7.877,8.59
		l11.896,6.014c3.909,3.13,7.777,7.305,11.497,12.408c7.607,10.438,15.122,17.992,20.086,22.491l3.69,3.344h5.248
		c0.146,0,0.243,0.014,0.245,0.014c3.964,0.585,6.831,1.733,7.814,2.555c2.479,2.064,4.779,5.445,4.369,7.898
		c-0.328,1.978-1.329,2.958-5.131,5.826c-0.792,0.595-1.684,1.271-2.667,2.045c-5.332,4.173-7.789,12.828-8.354,15.085
		c-0.643,1.146-3.893,6.403-10.471,8.215C436.449,495.022,434.803,495.254,433.207,495.254z"/>
	<polygon fill="#C31A2E" points="288.182,312.365 280.923,297.654 258.932,294.438 240.584,268.482 189.307,268.482 165.016,282.5 
		148.026,257.573 151.256,228.206 168.362,216.459 197.224,226.388 228.915,223.555 242.676,211.048 255,216.459 256.847,211.048 
		256.638,206.983 268.345,205.203 268.679,201.826 271.494,201.826 277.502,210.58 277.502,212.769 273.214,220.117 
		282.892,224.181 287.286,214.489 304.017,201.826 331.684,198.944 346.387,213.238 353.575,253.944 376.094,298.247 
		390.166,331.441 392.98,360.597 399.856,408.679 409.969,412.536 417.995,419.727 426.337,430.253 439.155,444.639 
		450.512,455.585 445.201,465.068 433.944,470.699 426.849,455.687 414.761,447.141 404.447,440.677 386.308,431.296 
		383.281,428.174 370.565,429.014 358.372,417.641 350.448,402.426 339.193,383.661 322.099,365.94 293.541,368.025 
		291.034,372.195 295.835,376.783 303.128,388.038 313.461,403.051 313.461,408.468 299.27,413.635 290.863,413.635 
		290.891,406.978 287.489,399.506 267.272,380.74 241.633,371.989 232.407,364.065 232.407,356.353 258.308,330.712 	"/>
	<polygon fill="#FFFFFF" points="72.326,175.659 83.234,186.674 86.695,196.847 85.54,209.221 87.741,214.469 95.088,218.871 
		103.683,216.459 107.462,209.853 107.462,190.553 97.501,178.177 84.91,173.143 70.544,173.143 	"/>
	<path fill="#FFFFFF" d="M254.785,205.203h13.562l0.563-4.407l9.612,8.637l-4.996,11.697l10.552,4.454
		c0,0,0.479-21.628,21.029-22.039c11.362-0.229-0.402-22.677,1.838-15.719l-2.939-12.341l-26.503-4.473l-16.844,4.893l-8.951,13.706
		v14.963L254.785,205.203z"/>
	<g opacity="0.28">
		<path fill="#FFFFFF" d="M90.54,238.184c0,0,0.5,9.433-1.117,14.125c0,0,3.96,4.194,8.95,4.754
			c4.994,0.559,0.421,3.354,2.656,5.731l-9.372-1.398l-8.664-7.271l-1.124-3.636l1.261-16.361L90.54,238.184z"/>
		<path fill="#FFFFFF" d="M95.818,220.655c0,0,2.31,2.099,3.461,9.229c1.155,7.133,0,11.225,0,11.225s-1.389,3.461,0.515,5.979
			c1.9,2.519,3.264,2.413,3.264,2.413s-8.777,0.53-9.525-5.451l-0.965-12.273l-3.776-15.208L95.818,220.655z"/>
		<path fill="#FFFFFF" d="M112.706,250.861c0,0,4.304,1.992,10.068,0.524c5.764-1.472,3.249-5.244,3.249-5.244
			s-1.991-3.46-3.985-5.35c-1.988-1.89-0.729-2.728-0.729-2.728s-2.012,0.626-1.794,3.773L112.706,250.861z"/>
		<path fill="#FFFFFF" d="M125.077,271.907c0,0-0.521-3.636-3.561-6.153c-3.04-2.517-5.771-3.671-5.771-3.671
			s-1.884-0.944-1.675-2.518c0.209-1.575,1.364-1.993,1.364-1.993s-0.946,1.993,0.418,2.729c1.358,0.731,12.021,2.932,13.089,8.336
			l-0.715,1.1L125.077,271.907z"/>
		<path fill="#FFFFFF" d="M127.867,282.5c0,0-1.005-1.854-2.369-3.528c-1.358-1.681,0-5.248,0-5.248s1.432-2.867,3.443-0.628
			c2.016,2.236-0.774,4.682-0.774,4.682l1.504,1.716L127.867,282.5z"/>
		<path fill="#FFFFFF" d="M69.062,229.563c0,0-1.086,10.498,5.542,16.476l-4.588,1.673l-4.825-4.191l-3.145-11.748l1.26-6.501
			l-1.26-12.586l9.123-18.564l7.447-8.915l2.833,1.89v1.102c0,0-5.246,4.352-8.913,15.68c-3.677,11.326-1.258,17.515-1.258,17.515
			s0.729,3.985,4.819,7.864C76.1,229.254,72.707,230.606,69.062,229.563z"/>
		<path fill="#FFFFFF" d="M113.342,205.788c0,0,4.207-3.801,6.292-7.473c2.093-3.67,3.142-7.549,3.142-7.549
			s0.313-5.665,1.782-9.021c1.467-3.354,4.928-5.94,4.928-8.634l-8.071,4.229l-4.722,7.866L115.642,198L113.342,205.788z"/>
		<path fill="#FFFFFF" d="M161.486,133.238c0,0-7.354,7.079-10.812,9.702c-3.468,2.622-3.775,5.034-1.159,6.604
			c2.628,1.575,11.051,3.497,5.839,10.979l-8.667-1.644l-5.662-3.463v-7.232l3.04-5.875l4.928-3.879l4.507-0.942L161.486,133.238z"
			/>
		<path fill="#FFFFFF" d="M204.022,117.313c0,0-3.935,3.299-2.734,7.172c1.193,3.875-6.564,3.455-6.564,3.455v-5.309l4.646-4.341
			L204.022,117.313z"/>
		<path fill="#FFFFFF" d="M185.281,197.006c0,0-2.203-11.063,4.51-25.75c6.713-14.684,24.889-22.402,24.889-22.402l-3.487-2.453
			l-14.058,6.607l-15.312,12.373l-7.659,14.428l-2.513,11.167l1.885,7.969L185.281,197.006z"/>
		<path fill="#FFFFFF" d="M157.279,324.593c0,0,24.962-5.034,33.875-16.887s16.048-19.193,26.746-22.759
			c10.696-3.564,24.656,2.111,25.96,8.503l0.996-5.566l-9.441-12.48l-20.867-3.494l-18.254,8.634l-11.014,11.013l-5.034,10.606
			l-5.243,8.901l-9.753,7.446L157.279,324.593z"/>
		<path fill="#FFFFFF" d="M140.423,344.711c0,0-0.343,3.794,7.625,7.569c7.976,3.776,13.428,19.821,13.428,19.821
			s3.252-1.155,5.137,2.833c1.891,3.985,3.04,5.244,3.04,5.244s3.046,3.669,0,6.291c-3.04,2.622-5.034,0-5.034,0l-5.028-11.117
			l-17.936-22.863L140.423,344.711z"/>
		<path fill="#FFFFFF" d="M399.029,312.109c0,0,8.317,5.177,12.515,16.083c4.195,10.908,5.034,17.76,5.034,17.76
			s0.699,7.41,6.157,12.167c5.446,4.753,11.604,15.524,11.604,15.524s8.248,8.389,12.724,10.905
			c4.476,2.518,5.453,5.037,5.453,5.037s3.916,4.188,9.229,3.213c5.312-0.979,22.933,16.642,27.27,24.052
			c4.336,7.412,9.021,18.807,9.021,18.807l-10.56-11.255l-22.519-22.654l-22.37-12.16l-47.268-30.068l-8.531-48.247l18.462-25.731
			l22.095,11.19L399.029,312.109z"/>
		<path fill="#FFFFFF" d="M168.293,268.482c0,0-0.069-3.495,2.026-5.178c2.1-1.678,4.476-3.494,4.476-3.494s2.94-2.378,5.312-3.216
			c2.375-0.84-1.948-5.17-6.495-0.559c-4.55,4.611-9.584,8.703-9.584,8.703L168.293,268.482z"/>
		<path fill="#FFFFFF" d="M155.494,238.065c0,0,5.034,7.622,12.868,6.222l-10.069-6.222l-2.799-3.426V238.065z"/>
		<path fill="#FFFFFF" d="M174.164,240.443c0,0-13.636,1.047-15.729-10.139h3.052l3.798,5.87L174.164,240.443z"/>
		<path fill="#FFFFFF" d="M175.702,237.643c0,0-6.625,0.133-10.687-7.729l1.281-2.546l4.063,5.14L175.702,237.643z"/>
		<path fill="#FFFFFF" d="M172.404,228.206c0,0,1.616,7.654,7.806,8.651l-3.899-5.156l-2.771-5.312L172.404,228.206z"/>
		<path fill="#FFFFFF" d="M186.803,241.531c0,0,9.604,9.234,41.1-0.437l2.687-8.587l-27.545,7.958L186.803,241.531z"/>
		<path fill="#FFFFFF" d="M257.466,219.239c0,0-1.005-1.416-2.959,0c-1.963,1.416-6.995,8.967-6.995,8.967s-2.096,3.076-4.194,5.733
			c-2.1,2.658-2.518,5.312-1.121,7.413c1.396,2.098,1.963,4.755,7.974,10.348c6.016,5.593,8.523,9.088,12.511,14.405
			c3.99,5.312,5.947,12.023,5.947,12.023s7.708,5.819,8.124,8.572l-5.322,3.315l-7.558-3.077l-14.538-23.773l-10.626-13.005
			l-5.462-14.123l2.522-7.553l14.823-11.886h7.271l1.261,2.936L257.466,219.239z"/>
		<path fill="#FFFFFF" d="M284.509,251.002c0,0,1.042-1.68,4.256-3.078c3.218-1.396,6.358,0.422,10.104-3.774l-0.923-5.141
			l-11.417-2.689l-7.549,7.344l-1.478,6.64L284.509,251.002z"/>
		<path fill="#FFFFFF" d="M300.438,241.464c0,0,2.927-2.276-2.494-12.139c-5.427-9.861,4.803-19.717,14.035-21.675
			c9.229-1.958,21.116-1.399,26.428,4.616l-4.616-8.393l-16.369-3.079l-20.595,6.994l-6.382,13.34v10.434l6.382,6.434
			L300.438,241.464z"/>
		<path fill="#FFFFFF" d="M296.237,277.76c0,0,4.834,16.591,16.999,24.979c0,0,12.304-11.329,13.146-32.025
			c0,0,2.518,7.691,0.561,14.823c-1.96,7.133-5.035,11.005-3.776,16.621c1.257,5.617,3.218,5.617,3.218,5.617
			s6.292-0.187,10.345-5.617c0,0,1.264,6.454-7.271,9.811c0,0,1.533,3.496,7.342,5.456c5.81,1.959,7.24,5.461,7.24,5.461
			l-9.688,1.705l-27.545-4.229l-23.913-30.346L296.237,277.76z"/>
		<path fill="#FFFFFF" d="M327.228,326.907c0,0-12.103,0.938-11.579,12.368c0.521,11.431,5.141,26.396,5.141,26.396l16.644,15.802
			l11.185,17.343l7.55,15.942l13.845,10.48l11.61,3.224l10.623-1.124l2.487-7.621c0,0-3.188-1.046-6.258,0.492
			c-3.08,1.534-6.434,0.84-9.231-1.116c-2.793-1.96-13.566-8.812-18.741-20.277c-5.176-11.47-3.493-21.132-3.493-21.132
			s1.957,0.854,2.656,2.112c0,0-2.938-5.873-6.851-10.351c-3.916-4.475-2.517-15.521-2.517-15.521s8.81,1.398,12.584-0.979
			c0,0-15.587,0.696-18.845-8.952c-3.249-9.646,1.925-20.693,1.925-20.693S334.503,322.962,327.228,326.907z"/>
		<path fill="#FFFFFF" d="M306.208,325.01c-16.357,1.261-29.458,14.93-29.458,14.93s-6.164,9.93-13.298,17.204
			c-7.131,7.269-18.595,7.269-18.595,7.269c-0.839,4.616,6.149,6.991,6.149,6.991l-4.476,1.816l-11.048-4.75l-3.078-7.866
			l1.542-6.26l13.002-13.005l16.36-12.446l29.604-7.613l14.851,2.015L306.208,325.01z"/>
		<path fill="#FFFFFF" d="M272.543,378.392c0,0,9.93,5.175,17.764,12.728c7.829,7.556,8.667,21.681,8.667,21.681l-8.109,0.836
			l0.419-5.174l-1.679-6.432l-17.062-15.939l-6.149-4.478L272.543,378.392z"/>
		<path fill="#FFFFFF" d="M395.322,429.014c0,0,17.058,4.336,27.551,13.708c10.483,9.369,18.739,25.31,18.739,25.31l-8.256,1.544
			l-5.027-10.21l-13.845-13.285l-14.688-8.255l-10.346-4.332L395.322,429.014z"/>
	</g>
	<g>
		<path fill="#003192" d="M104.66,249.67c0,0,2.59-0.977,2.94-6.082c0,0,1.115,0.979,1.329,1.4c0,0,0.837-2.029-0.49-6.434
			c-1.326-4.407,0.752-7.482,0.752-7.482s0.643-1.609,2.884-2.867c0,0-1.395,1.749-1.676,5.035
			c-0.278,3.286,0.281,4.896,0.281,4.896s1.885-2.867,4.327-3.285c0,0-0.418,1.885,0,2.514c0.426,0.632,1.755,3.499,0.635,6.922
			c0,0,3.072-1.186,3.98-4.823c0,0,0.425,3.076-1.676,6.645c-2.097,3.562-5.243,4.755-5.243,4.755s-2.182-0.228-3.775-2.799
			C108.929,248.062,107.181,250.369,104.66,249.67z"/>
		<path fill="#003192" d="M538.311,465.655c0,0-1.473-4.088-4.304-4.615c0,0-8.286-13.316-8.601-25.276c0,0,2.204-1.674,0.104-4.821
			c-2.097-3.146-9.859-8.602-13.847-10.071c0,0-4.301-5.974-10.487-21.919c-6.185-15.938-15.205-16.044-15.205-16.044
			s-3.88-6.295-9.859-12.796c-5.979-6.505-7.235-24.751-7.235-24.751s-1.048-14.056-4.718-22.444
			c-3.678-8.394-11.325-15.941-11.325-15.941s9.33,2.098,13.212,6.294c3.886,4.191,3.146,5.558,13.217,14.894
			c10.067,9.332,24.438,8.602,24.438,8.602s5.244,5.241,12.587,4.087c7.343-1.152,18.981-9.229,19.72-15.627
			c0,0-11.959,1.889-16.892-1.99c-4.929-3.883-10.171-3.042-10.171-3.042s-5.035,0-9.754,3.985c0,0-8.184,4.092-18.879-8.707
			c-10.699-12.793-23.495-20.239-23.495-20.239s-11.638-6.715-24.437-10.174c0,0-7.552-18.249-26.643-40.484
			c-19.088-22.233-35.03-33.771-35.03-33.771s-5.143-20.87-20.866-32.092c0,0-0.213-17.412-10.178-30.102
			c-9.962-12.691-25.271-18.773-25.271-18.773s2.303-3.253,8.072-6.397c0,0-18.042-14.265-61.146-20.452
			c-43.106-6.188-72.262,7.131-72.262,7.131s-11.745,6.711-15.312,7.237c-3.565,0.522-13.426,9.229-13.426,9.229
			s-14.895,9.335-18.667,9.963c-3.777,0.629-14.054,13.636-12.796,17.411c0,0-10.381,3.879-13.112,5.454
			c0,0-1.675-1.362-3.039-0.838c-1.359,0.524-13.848,5.977-24.756,14.263c0,0-8.913-4.09-21.076,0.104c0,0,4.088,2.482,7.656,8.427
			c0,0-11.47,15.942-15.667,27.686c-4.192,11.749,0,14.268,0,14.268s1.838,1.418,1.404,5.592
			c-1.052,10.104,2.232,16.501,2.232,16.501s2.241,11.747,17.615,13.146c0,0,6.161,14.263,14.55,13.701
			c0,0,6.435,9.513,12.308,12.028c5.869,2.518,12.859,7.551,12.859,7.551s8.951,10.584,13.148,10.325
			c4.193-0.259,16.777-2.771,22.371-9.487c0,0,10.627,1.958,10.354,11.188c-0.284,9.229-7.273,12.586-7.273,12.586
			s-17.345,2.518-26.291,8.671c-8.951,6.15-16.5,18.182-16.5,18.182s-6.714,8.944-1.401,14.542
			c5.315,5.593,3.077,21.541,3.077,21.541s-1.954,19.016,0,26.282c1.957,7.272,7.83,11.188,7.83,11.188s11.47,6.994,11.186,20.142
			c0,0,12.59-2.237,20.145-11.188c0,0,0.278-13.424-9.791-19.857c0,0-0.845-4.752-0.278-5.873c0.559-1.121-0.774-2.271-0.774-2.271
			s-4.189-2.417-6.71-3.149c0,0,3.358-14.681,0.418-32.302c0,0,2.521-0.104,2.831,0.313c0,0,1.785,3.045,3.879,4.406
			c2.103,1.36,8.081,9.019,8.713,11.117c0.627,2.098-0.609,9.562,13.211,18.353c11.542,7.341,17.515-1.89,17.515-1.89
			s16.151,1.994,25.277,7.868c0,0,2.937-7.655-2.41-19.824c-5.352-12.166-12.062-9.227-12.062-9.227s-8.492,1.256-10.805-0.315
			c0,0-5.661-7.555-12.581-8.182c0,0-4.934-11.438-8.183-23.493c0,0,5.032-3.146,13.106-3.882
			c8.077-0.732,17.938,0.213,17.938,0.213s14.373,1.047,20.346-1.156c5.979-2.202,13.639-9.856,13.639-9.856
			s11.323,5.979,25.798,4.821c0,0-21.5,15.84-24.961,24.858s5.244,14.683,5.244,14.683s4.301,1.994,11.117,3.886
			c6.819,1.884,18.146,8.179,18.146,8.179s18.878,12.48,23.702,20.658c4.825,8.184-5.141,11.33-5.141,11.33
			s-12.165,5.14-13.738,7.13c-1.575,1.995,1.991,5.871,1.991,5.871s5.665,5.141,19.509,1.473
			c13.843-3.677,10.279-4.193,15.732-5.246c5.452-1.046,12.271,0.524,12.271,0.524s7.97,1.362,9.859-5.452
			c1.885-6.816-4.304-12.796-4.304-12.796s-2.727-2.729-8.077-3.671c0,0-8.18-7.554-13.108-16.68
			c-4.928-9.123-9.543-13.523-9.543-13.523s0.104-1.992,9.862-2.521c9.75-0.523,18.037,0,18.037,0s12.479,9.229,18.354,18.145
			c5.873,8.92,11.222,20.873,11.222,20.873s2.622,7.235,7.026,10.066l-11.324,8.391c0,0-7.767,5.141-12.271,6.087
			c-4.517,0.939-11.226,3.985-11.226,3.985s-10.386,6.289-13.738,13.843c-3.357,7.55-2.622,8.073-2.622,8.073
			s-6.08,11.435-9.65,14.161c0,0,4.199,4.508,17.624,2.938c13.421-1.574,16.464-12.899,16.464-12.899s2.939-3.355,3.776-5.451
			c0.839-2.102,5.979-0.425,5.979-0.425s4.613,1.262,6.291-0.523c0,0,6.084,0,10.697-5.243c4.613-5.242,16.46-19.088,19.72-21.71
			c0,0,1.781,0.419,3.88-0.729c0,0,5.871,6.286,12.271,7.861c6.394,1.577,9.858,3.562,21.396,11.433
			c11.535,7.864,15.624,20.138,15.624,20.138s1.784,5.665,0.945,9.756c-0.842,4.09-6.82,11.224-6.82,11.224s-1.99,2.935-0.836,5.03
			c0,0,5.35,3.672,13.739,1.365c8.392-2.308,11.96-9.548,11.96-9.548s2.303-9.962,7.652-14.156c5.349-4.194,7.97-5.453,8.601-9.228
			c0.634-3.775-2.618-7.871-5.139-9.965c-2.521-2.099-8.913-3.044-8.913-3.044s-2.62-0.418-2.837,1.573
			c0,0-12.27-9.125-24.958-26.533c-12.689-17.41-23.077-18.776-23.077-18.776s7.137-2.934,7.977-6.604
			c0.839-3.672-4.934-25.276-7.343-30.203c0,0,5.867,7.023,16.572,12.166c10.695,5.137,29.152,15.102,29.152,15.102
			s3.256,3.88,9.338,4.403c6.08,0.525,18.141,14.059,18.141,14.059s7.763,8.49,15.525,18.979
			c7.759,10.488,11.326,18.04,11.326,18.04s0.418,10.485,6.711,18.979c6.291,8.494,7.347,10.28,7.347,10.28s0.628,0.632,1.677,0.943
			c0,0,5.87,9.331,7.338,15.629c0,0,8.392-6.084,11.436-15.629C540.197,473.628,538.311,465.655,538.311,465.655z M72.429,174.193
			c5.14-0.525,10.066,0,10.387,0c0.312,0,14.784,2.203,20.976,13.529c6.189,11.33,0.868,25.275,0.868,25.275
			s-4.747,6.189-11.464,3.182c-6.71-3.007-5.733-8.216-5.733-8.216s3.011-7.655-0.768-17.83
			C82.919,179.961,72.429,174.193,72.429,174.193z M79.845,226.738c0,0-1.542,14.963-4.825,19.369c0,0-12.799-1.47-11.398-18.04
			c0,0,2.375,2.797,5.874,1.814c0,0-6.158-4.054-5.874-11.466c0.282-7.412,1.957-11.468,1.957-11.468s4.06-11.604,13.842-20.694
			c0,0,4.201,2.656,5.318,9.647c1.117,6.992-0.703,11.468-0.703,11.468s-0.562,1.537,0.425,2.796c0,0-1.611,0.838-0.772,2.378
			c0.836,1.537,2.799,6.919,3.218,9.229c0.418,2.311,0.558,9.439,0.558,9.439S84.386,227.368,79.845,226.738z M149.411,287.289
			c-0.14,1.956-5.034,4.546-5.034,4.546s-4.405,2.796-7.688,3.495c-3.29,0.698-3.85-1.188-3.85-1.188
			c-1.257-3.427-3.983-6.151-3.983-6.151c1.745-1.4,1.536-6.854,1.536-6.854c2.866-1.396,2.59-3.075,2.59-3.075
			c3.143,0.419,4.476,3.774,4.476,3.774c0-3.983-3.147-5.243-3.147-5.243c0.209-0.629,1.751-1.05,1.751-1.05
			s-2.378-1.188-5.104-0.209c-2.729,0.979-3.708,3.776-3.29,5.872c0.418,2.097,0.561,6.155,0.561,6.155
			c-3.428-6.501-10.068-10.068-10.068-10.068s-3.149,0.349-7.06-1.75c-3.917-2.099-4.825-4.616-4.825-4.616
			c2.516-2.726,1.745-7.269,1.745-7.269s-0.277-2.52-1.188-4.545c-0.908-2.029,0-3.287,0-3.287
			c-5.452,2.309-6.501,6.503-6.501,6.503s-4.057,1.259-9.439-2.169c-5.386-3.425-7.484-8.599-7.484-8.599
			c1.473-7.973,0.559-15.733,0.559-15.733c2.521,4.127,6.157,3.775,6.157,3.775c0.143,8.882,6.782,10.841,6.782,10.841
			c-3.848-2.028-3.358-7.133-3.358-7.133s0.703-6.018,0.143-13.005c-0.562-6.992-2.797-11.817-2.797-11.817s2.445,3.216,7.198,2.936
			c4.759-0.277,8.462-5.242,8.462-5.242s3.772-5.522,6.433-9.789c2.659-4.265,3.438-8.393,3.438-8.393s0.479-7.622,1.667-12.376
			c1.188-4.755,5.243-8.53,7.693-9.718c2.443-1.188,3.702-2.795,3.702-2.795c-0.209,1.605,0.49,3.074,0.49,3.074
			s2.31,6.293,0.906,13.706c-1.396,7.413-4.959,11.047-5.865,12.517c-0.915,1.469-0.217,1.679-0.217,1.679
			c3.286,10.137,0.983,17.34,0.983,17.34c4.058,1.612,9.718,0.349,9.718,0.349s6.991-3.076,10.203,9.091
			c3.221,12.167-0.134,20.485-0.134,20.485c-1.261-8.182-6.229-10.697-6.229-10.697s4.128,7.901,3.219,15.312
			c-0.908,7.412-6.643,13.075-6.643,13.075s-2.938-1.117-6.295-0.559c-3.352,0.559-4.547,3.425-4.547,3.425
			c2.313-1.89,5.671-2.238,8.396-1.82c2.728,0.42,4.263,3.568,4.753,4.616c0.488,1.047,1.885,1.121,1.885,1.121
			s4.756,0.415,6.925,3.705C149.202,282.813,149.552,285.33,149.411,287.289z M145.426,155.347
			c-4.894-1.956-1.534-9.229-1.534-9.229s0.836-3.914,8.528-7.271c7.69-3.355,19.018-13.845,19.018-13.845
			s22.659-23.214,72.722-20.277c50.058,2.938,72.715,18.318,72.715,18.318c-6.854,3.773-9.092,7.411-9.092,7.411
			s16.792,4.801,28.248,21.255c11.461,16.455,11.052,29.647,11.052,29.647c14.259,9.926,18.595,28.526,18.595,28.526
			c-4.894-1.957-8.524-5.734-8.524-5.734c-5.453-13.983-15.668-17.2-15.668-17.2c-4.893-18.877-19.018-37.478-19.018-37.478
			s-17.062-21.396-43.771-26.987c-26.709-5.596-42.229-4.476-42.229-4.476c2.241-1.399,5.73-1.96,5.73-1.96
			c-10.486-4.477-22.23-1.677-22.23-1.677s-7.416,1.677-13.008,6.292c-5.593,4.616-11.326,6.295-11.326,6.295
			c-0.279-6.713,8.395-9.648,8.395-9.648c-10.351-0.979-13.845,7.412-13.845,7.412s-4.34,13.423-12.308,23.212
			c-7.971,9.791-22.518,12.584-22.518,12.584C155.637,157.867,150.32,157.305,145.426,155.347z M261.108,208.592
			c2.799-0.209,4.653,0.562,5.104,1.297c0.456,0.731,1.504,1.36,1.504,1.36v2.168c-4.651-0.312-8.702,0.49-8.702,0.49
			C260.309,212.266,261.108,208.592,261.108,208.592z M254.785,205.203c-0.528-0.49-0.946-1.715-0.946-1.715l13.881-1.082v1.4
			C259.12,204.224,254.785,205.203,254.785,205.203z M267.718,215.934v2.1c-1.466-0.21-7.653-0.444-7.653-0.444l-0.733-0.922
			C262.999,216.145,267.718,215.934,267.718,215.934z M274.534,238.589c7.131-6.501,9.544-13.005,9.544-13.005
			s0.843,0.733-0.729,4.825c-1.576,4.089-10.388,16.571-15.523,18.459c-5.14,1.888-6.716-0.543-6.716-0.543
			S267.406,245.09,274.534,238.589z M270.657,210.796l-0.109-1.362c0.109-0.733,2.731-2.2,2.731-2.2
			c-1.576-1.261-3.779-1.261-3.779-1.261v-3.449c1.89,0.223,5.034,5.021,6.501,7.366c1.475,2.342-0.837,3.528-0.837,3.528h-4.297
			l-0.109-1.362h0.633C270.967,211.741,270.657,210.796,270.657,210.796z M274.047,215.48l-1.813,3.216
			c-0.597-0.104-2.731-0.245-2.731-0.245v-2.901C271.426,215.435,274.047,215.48,274.047,215.48z M282.293,222.02
			c-2.614-1.575-7.021-2.623-7.021-2.623l3.146-5.354c1.681-2.412,0.105-4.612,0.105-4.612s-4.615-6.188-5.814-7.657
			c-1.196-1.467-2.578-1.363-2.578-1.363l-16.679,0.838c0,0-1.841-7.473,5.562-17.302c6.71-8.917,16.783-10.115,16.783-10.115
			s8.179-1.423,18.245,2.04c10.071,3.459,12.902,11.955,12.902,11.955c-2.622,1.575-4.935,5.348-4.935,5.348
			c2.202-1.466,5.353-2.306,5.353-2.306c0.939,3.147,0.627,6.002,0.627,6.002s-12.371,2.811-19.087,10.57
			C282.193,215.2,282.293,222.02,282.293,222.02z M252.406,147.869c-0.206,0.061-0.406,0.116-0.603,0.172
			c-3.251,0.974-18.869,6.237-23.94,19.125c-5.038,12.794-8.808,15.104-8.808,15.104s-19.72,17.196-44.473,14.263
			c0,0-5.889-13.806,11.744-33.351c17.416-19.301,42.586-14.058,42.586-14.058s10.56,2.434,22.891-1.084
			C252.185,147.925,252.406,147.869,252.406,147.869z M155.918,240.234c-0.914-4.688,2.444-0.632,2.444-0.632s6.642,4.896,10,4.685
			c0,0-3.567-2.025-6.151-5.383c-2.591-3.355-3.147-4.614-3.775-6.431c-0.63-1.818,0.977-1.75,1.676-0.843
			c0.699,0.909,3.636,4.896,6.22,6.436c2.59,1.537,7.833,2.378,7.833,2.378s-2.372-1.12-5.384-4.126
			c-3.009-3.007-3.374-3.977-3.82-5.311c-0.444-1.336,0.749-2.302,2.352,0c1.609,2.304,5.526,5.52,8.393,6.637
			c0,0-2.725-3.425-3.143-6.292c-0.425-2.867,0-3.914,0.977-2.656c0.979,1.259,2.584,5.732,5.802,7.622
			c3.223,1.888,4.126,3.427,4.126,3.427s4.758,4.404,17.76,2.938c13.008-1.472,27.833-8.386,27.833-8.386s-2.173,7.404-0.639,11.669
			c1.545,4.269,5.25,8.041,5.25,8.041s-12.937,1.537-24.263,1.118c-11.326-0.418-16.429,0-16.429,0s-1.771,0.52-3.85,3.708
			c-2.101,3.216-7.35,2.321-7.35,2.321s-2.51-0.784-5.519,2.151c-3.003,2.938-5.101,4.614-7.969,5.178c0,0-1.891-2.521,0-5.245
			c1.888-2.726,3.917-3.708,3.917-3.708s1.954-1.957,1.258-5.103c-0.698-3.146-5.245-4.759-5.245-4.759
			S156.821,244.915,155.918,240.234z M242.616,303.16c-1.118,1.682-3.493,1.261-3.493,1.261c-0.14-0.7,1.118-2.261,1.118-2.261
			s-8.533,3.52-14.544,9.949c-6.014,6.437-15.243,10.49-19.581,11.469c-4.329,0.98-19.852,0-19.852,0s-17.484,0.698-25.455,6.989
			c-7.969,6.296-5.171,11.749-5.171,11.749c0.421-0.979,2.098-1.816,2.098-1.816c0,10.484,10.068,26.988,10.068,26.988
			s11.605,6.991,11.324,14.544c-0.276,7.556-4.753,8.67-4.753,8.67c-4.756,0.418-7.131-2.098-7.131-2.098s-3.356-2.377-4.335-8.393
			s-9.649-16.64-9.649-16.64s-3.776-4.194-9.649-11.468c-5.873-7.271-2.241-16.082-2.241-16.082
			c2.522-6.854,13.567-10.492,18.185-12.308c4.614-1.818,12.583-7.131,12.583-7.131s9.089-9.368,10.771-14.428
			c1.676-5.057,5.456-9.626,5.456-9.626s5.034-6.854,17.196-13.983c12.172-7.133,23.498-2.656,23.498-2.656
			s8.81,2.234,12.721,10.767C245.693,295.189,243.733,301.481,242.616,303.16z M254.925,266.383
			c-3.147-5.348-12.381-14.056-12.381-14.056s-2.831-3.146-5.244-10.488c-2.41-7.342,0.633-11.222,0.633-11.222
			c4.402-6.293,15.102-11.538,16.289-12.375c0,0,3.534-1.47,3.639,0c0.128,1.782-4.928,3.778-6.604,6.923
			c-1.682,3.146-6.605,9.755-6.605,9.755c0.309,11.222,11.114,14.366,11.114,14.366s5.246,2.31,12.166,5.874
			c6.925,3.567,9.965,9.125,9.965,9.125c0-5.034-4.933-8.603-4.933-8.603s7.976-1.258,16.262,4.826
			c8.281,6.081,7.604,11.955,7.604,11.955c-10.321,10.175-20.614,14.476-20.614,14.476s-5.874,1.36-8.496,0
			c-2.619-1.364-4.822-5.98-4.822-5.98S258.068,271.733,254.925,266.383z M269.609,381.614c0,0,6.292-4.058,12.162-5.456
			c5.874-1.396,10.209-1.814,10.209-1.814c0.839,0.562,1.957,2.099,1.957,2.099s-4.472,0.418-10.49,2.655
			c-6.011,2.233-10.905,5.035-10.905,5.035C271.285,382.731,269.609,381.614,269.609,381.614z M296.827,380.771
			c0,0,2.986,6.017,6.062,11.747c3.079,5.733,9.367,12.31,9.367,12.31s-1.533,1.681-5.73,3.496
			c-4.194,1.815-13.287,3.354-13.287,3.354s-0.418-8.249-4.194-13.002c-3.771-4.757-11.748-10.77-11.748-10.77
			C282.33,382.45,296.827,380.771,296.827,380.771z M380.778,426.848c0,0-10.278-3.776-17.098-7.863
			c-6.816-4.09-8.388-9.229-8.388-9.229s-5.353-10.908-9.021-18.566c-3.667-7.656-18.145-20.795-18.145-20.795
			s-5.143-5.321-8.284-14.651c-3.149-9.337-4.194-16.468-4.194-16.468c-5.033,3.879-26.543,12.69-26.543,12.69
			s-5.131,7.134-15.199,11.85c-10.069,4.723-23.389,6.504-23.389,6.504s-8.704,0.839-13.638-3.146
			c-4.928-3.986-2.619-8.497-2.619-8.497s-0.312-1.572,7.653-9.755c7.977-8.18,21.921-17.2,21.921-17.2s5.633-4.368,20.945-6.465
			c15.312-2.102,21.425-0.248,21.425-0.248s2.097,1.994,17.203,1.994c15.099,0,21.079-4.403,21.079-4.403
			c-8.393,1.363-25.695-2.311-28.735-3.358c-3.045-1.048-5.348-4.088-5.77-4.612c-0.418-0.524-7.237-7.234-7.237-7.234
			s-8.284-6.818-11.954-12.271c-3.676-5.454-2.521-8.495-2.521-8.495s7.659-8.917,10.281-11.12c2.619-2.2,2.619-4.715,2.619-4.715
			c4.35-1.68,6.083-5.877,7.976-9.337c1.886-3.463,9.435-8.887,9.435-8.887c-0.94-0.18-3.671,0.811-3.671,0.811
			c2.94-7.972,10.389-13.008,10.389-13.008c-2.104,0.21-4.824,1.261-4.824,1.261c0.942-5.139,5.871-11.222,5.871-11.222
			s-6.607,2.729-9.542,8.076c-2.939,5.35-5.882,12.271-8.813,19.927c-2.937,7.658-6.709,9.755-6.709,9.755s-2.831-6.504-8.92-11.852
			c-6.08-5.352-13.211-7.658-13.211-7.658c4.513-6.919,10.801-9.334,14.996-8.601c4.198,0.734,4.722,4.091,4.722,4.091
			c2.099-2.204,2.203-4.616,0.736-7.242c-0.972-1.745-3.357-3.982-5.979-8.28c-2.622-4.301-1.361-8.602-1.361-8.602
			s5.771-13.845,22.443-16.99c16.672-3.145,23.7,9.232,23.7,9.232s10.171,22.021,9.649,37.316
			c-0.526,15.298,4.615,22.986,4.615,22.986s9.854,20.872,12.271,30.103c2.406,9.229-7.344,12.377-7.344,12.377
			c4.825,1.989,11.851-5.247,11.851-5.247s8.812,1.153,14.686,19.401c5.872,18.25,0.941,25.487,0.941,25.487
			s-2.308,3.146,0.314,8.471c2.622,5.33,5.137,25.195,7.132,31.804c1.99,6.605,4.931,8.076,4.931,8.076s1.886,8.494-2.725,16.674
			C390.109,427.898,380.778,426.848,380.778,426.848z M427.064,432.232c12.868,15.384,21.535,22.521,21.535,22.521
			c-2.794,8.524-14.26,12.587-14.26,12.587s-5.034-9.932-11.887-17.2c-6.854-7.275-21.398-13.567-21.398-13.567
			c12.729-3.636,9.092-23.077,9.092-23.077S414.204,416.85,427.064,432.232z M402.453,410.699c0,0,3.076,0.698,4.478,1.681
			c0,0,2.238,19.437-10.202,22.092l-4.897-1.952C391.829,432.517,403.577,430.275,402.453,410.699z M475.594,407.135
			c0,0-11.119-10.701-16.151-10.701c-5.04,0-7.762-3.564-7.762-3.564s-2.104-2.728-11.541-9.856
			c-9.437-7.132-6.077-3.776-20.345-11.327c-14.267-7.553-23.283-20.347-23.283-20.347c5.031-23.491-1.051-22.235-3.146-38.391
			c-2.1-16.15,12.162-22.233,12.162-22.233c10.699-0.628,15.943,5.454,15.943,5.454s-7.971,1.052-16.152,4.825
			c-8.184,3.776-6.291,11.116-6.291,11.116s14.894,2.31,25.592,10.91c10.698,8.598,12.793,26.22,12.793,26.22
			c-4.404-1.889-9.017-9.857-9.017-9.857c2.307,10.275,11.535,19.72,11.535,19.72s1.467,9.438,4.197,14.895
			c2.429,4.861,8.019,8.883,9.203,9.696c-0.969-0.834-0.607-3.2-0.607-3.2s7.34,2.104,17.408,7.137
			c10.067,5.032,16.785,12.166,16.785,12.166s-1.263,1.048,1.258,5.035c2.515,3.982,5.874,11.323,5.874,11.323
			c-1.679-1.467-4.408-1.68-4.408-1.68c4.826,8.396,8.394,21.186,8.394,21.186C493.844,427.686,475.594,407.135,475.594,407.135z"/>
		<path fill="#003192" d="M262.677,191.553c0,0,0.958,2.575,3.636,5.451c0,0-1.954-3.771-1.813-6.291c0,0,2.235-7.69,13.002-10.906
			C277.502,179.807,266.875,180.925,262.677,191.553z"/>
	</g>
</g>
</svg>