<?xml version="1.0" encoding="utf-8"?>
<!-- Generator: Adobe Illustrator 16.0.0, SVG Export Plug-In . SVG Version: 6.00 Build 0)  -->
<!DOCTYPE svg PUBLIC "-//W3C//DTD SVG 1.1//EN" "http://www.w3.org/Graphics/SVG/1.1/DTD/svg11.dtd">
<svg version="1.1" id="Layer_1" xmlns="http://www.w3.org/2000/svg" xmlns:xlink="http://www.w3.org/1999/xlink" x="0px" y="0px"
	 width="595.275px" height="595.279px" viewBox="0 0 595.275 595.279" enable-background="new 0 0 595.275 595.279"
	 xml:space="preserve">
<metadata><?xpacket begin="﻿" id="W5M0MpCehiHzreSzNTczkc9d"?>
                                                                                                   
<?xpacket end="w"?>
	</metadata>
<g id="Layer_1_1_">
	<g>
		<path fill="#021836" d="M210.106,130.585c0.766,5.132,10.059,8.71,17.92,8.71c2.104,0,4.041-0.248,5.591-0.716
			c5.333-1.612,24.719-6.872,50.314-6.872c13.718,0,26.98,1.538,39.432,4.571c5.846,1.425,11.831,3.185,17.793,5.231l8.714,2.986
			l-6.044,6.952c-3.38,3.887-6.354,8.287-6.387,8.33l-0.234,0.351l-0.282,0.317c-0.82,0.923-17.917,20-30.441,31.382
			c4.89,0.391,9.617,1.109,14.132,2.167l18.785,4.397l14.56-10.979l-9.896,12.071l4.966,1.162l-7.021,1.345l-20.958,25.567
			c-11.737,14.324-27.265,19.979-41.854,24.109l-50.664,37.147c-0.671,0.562-2.981,3.358-5.021,5.827
			c-6.717,8.127-17.96,21.729-34.003,34.98c-15.392,12.715-41.175,18.271-63.922,23.181c-11.866,2.56-23.072,4.976-28.956,7.836
			c-12.991,6.313-15.345,9.483-15.438,9.617c-3.624,4.585-1.068,11.521-1.068,11.521c-11.68-2.008-10.61-15.113-10.61-15.113
			l0.04-0.238c2.063-11.417,7.9-17.903,17.283-25.241c5.283-4.133,10.655-7.127,15.854-10.021
			c10.363-5.775,19.315-10.771,26.9-23.704c2.394-4.076,4.628-7.613,6.617-10.604c-1.291,0.052-2.646,0.08-4.065,0.08
			c-8.659,0-17.314-1.064-25.728-3.167c-25.638-6.41-39.464-27.039-40.04-27.915l-9.53-14.479l16.561,5.142
			c0.062,0.021,7.979,2.396,18.749,2.396c7.452,0,14.477-1.117,20.875-3.322c10.178-3.505,18.833-14.592,27.994-26.326
			c3.412-4.371,6.871-8.806,10.527-13.021l-19.215,12.48l30.39-34.271c0.504-0.563,12.545-13.993,34.173-25.443
			c5.403-2.858,10.982-5.317,16.32-7.397c-1.442-0.697-2.813-1.48-4.106-2.354c-13.104-8.813-13.25-22.138-11.354-28.494
			c0,0,2.812-9.562,13.396-11.393C211.139,119.367,209.263,123.885,210.106,130.585z M272.606,253.482
			c-10.167,2.741-19.771,5.331-25.896,10.333c-2.316,1.896-4.486,3.854-6.506,5.812l35.903-17.101
			C274.933,252.855,273.763,253.17,272.606,253.482z M278.563,227.057c1.188,0.054,2.354,0.124,3.504,0.21
			c1.02,0.076,2.059,0.11,3.09,0.11c15.619,0,27.233-8.617,27.35-8.708l19.604-14.777l-11.75,2.25
			c-10.021,1.919-25.36,9.797-35.374,16.305c-2.192,1.426-4.064,2.836-5.875,4.199C278.927,226.784,278.745,226.92,278.563,227.057z
			"/>
		<path fill="#021836" d="M395.418,123.828c0.224,23.75,26.855,60.666,33.992,68.455c14.559,15.885,22.128,32.667,22.517,49.881
			c0.468,21.104,5.139,38.371,5.186,38.542l5.216,19.039l-15.173-12.626c-11.188-9.31-19.763-23.729-24.885-32.353
			c-1.312-2.202-2.545-4.282-3.104-5.014c-2.604-3.408-9.962-9.021-20.505-13.852c-2.577-1.182-5.258-2.653-7.859-4.251
			c0.356,1.053,0.744,2.134,1.159,3.229c0.242,0.604,0.438,1.104,0.57,1.478l-11.564,4.513c0-0.002-0.223-0.549-0.568-1.473
			c-1.767-4.378-8.183-18.926-18.191-26.312l-3.479-2.562l0.809-2.801c-0.268-1.012-0.737-2.605-1.166-4.062
			c-1.938-6.591-4.868-16.55-5.714-25.116c-0.737-7.493-2.602-16.778-4.748-23.667l-3.997-12.815l12.354,5.261
			c9.583,4.08,17.729,8.297,23.979,11.832c-1.965-17.337,2.042-32.979,2.312-34.009c0,0,2.865-12.894,14.362-15.266
			C396.916,109.878,395.382,114.784,395.418,123.828z"/>
		<path fill="#FFFFFF" d="M336.886,477.886c-16.189-11.688-44.644-19.086-63.944-24.107c-7.604-1.978-14.173-3.687-16.744-4.838
			c-2.555-1.146-7.343-6.785-11.565-11.76c-10.18-11.986-22.848-26.905-40.017-29.589c-18.052-2.82-51.733-19.277-63.682-25.325
			c1.246-3.923,3.767-10.134,8.564-16.627c2.896-3.914,8.855-9.213,15.165-14.824c12.62-11.224,26.922-23.943,31.209-37.34
			c0.484-1.521,1.005-3.18,1.562-4.966c5.816-18.646,16.65-53.35,36.138-67.023c18.78-13.188,29.018-23.688,32.869-27.646
			c0.324-0.332,0.59-0.604,0.801-0.815c1.522-0.855,4.688-2.777,12.023-7.394c3.854-0.013,11.771-1.257,21.921-9.332
			c12.312-9.797,34.701-34.793,35.646-35.853l0.282-0.314l0.236-0.354c2.442-3.625,5.779-7.862,8.429-10.556
			c2.516,5.726,5.703,18.354,6.78,29.312c0.918,9.325,2.896,14.469,4.345,18.229c0.926,2.4,1.332,3.521,1.282,4.734l-0.223,5.233
			l5.124,1.096c0.271,0.062,27.786,6.119,50.44,22.765c21.951,16.132,31.47,52.896,31.562,53.271l0.46,1.812l1.388,1.267
			c0.21,0.188,21.213,19.277,42.164,41.438c12.585,13.31,18.832,24.159,23.396,32.093c3.214,5.582,5.529,9.609,8.841,12.095
			c3.522,2.646,8.402,10.694,10.338,17.661c-2.994,1.612-5.759,2.256-8.456,2.885c-4.957,1.155-11.125,2.591-14.056,10.405
			c-1.525,2.979-14.354,7.51-19.83,9.438c-7.67,2.706-11.781,4.229-14.148,6.604c-0.849,0.848-1.452,1.613-1.936,2.228
			c-1.193,1.52-2.684,3.396-27.021,6.213C417.374,431.344,353.159,468.299,336.886,477.886z"/>
		<g opacity="0.14">
			<path d="M157.168,369.204c0,0,8.485-6.564,27.646-15.056c19.162-8.486,33.122-16.15,48.726-41.061
				c15.604-24.915,28.194-34.77,34.77-37.229c0,0-11.771,10.402-13.688,23.815s-15.056,31.479-15.056,31.479l-52.562,29.837
				L157.168,369.204z"/>
			<path d="M255.987,414.924c0,0,12.044-22.179,15.604-35.859c3.562-13.688,8.396-41.062,17.521-51.463
				c9.125-10.402,27.557-16.789,27.557-16.789s-12.956,7.848-16.235,16.604c-3.285,8.766-26.827,69.353-37.959,81.396
				C251.335,420.851,255.987,414.924,255.987,414.924z"/>
			<path d="M370.321,283.069c0,0-25.55,56.754,9.488,70.806c35.039,14.059,55.295,22.994,55.295,22.994h3.285
				c0,0-14.966-17.147-22.446-22.44c-7.482-5.291-33.029-14.233-41.427-30.479C366.123,307.705,370.321,283.069,370.321,283.069z"/>
			<path d="M412.11,376.868c0,0,17.154,9.679,19.896,16.79c2.732,7.117,4.562,18.248,16.236,18.614
				c11.685,0.365,14.964,1.46,14.964,1.46l2.562,3.104l-22.447,2.731l-17.703-4.19l-4.742-21.898L412.11,376.868z"/>
			<path d="M434.557,339.276c0,0,13.505,17.154,22.628,38.872c9.125,21.715,20.256,13.32,26.826,17.521
				c6.563,4.19,8.396,11.857,4.016,14.229c-4.379,2.372-13.139,1.277-13.139,1.277l-20.988-18.79l-7.847-22.083l-7.664-16.978
				L434.557,339.276z"/>
			<path d="M499.888,368.109c0,0,13.687-0.547,14.781,8.76c1.094,9.312-1.458,8.578-1.458,8.578l-8.766-3.833l-3.285-8.577
				L499.888,368.109z"/>
			<path d="M392.765,267.375c0,0,1.097,2.373,2.008,6.938c0.913,4.562,1.461,10.397,7.117,11.497
				c5.651,1.095,10.766-1.1,16.604,2.919c5.846,4.016,1.461-2.56,1.461-2.56l-16.06-10.312l-2.373-4.835
				C401.525,271.025,397.51,268.47,392.765,267.375z"/>
			<path d="M349.699,155.143c0,0-14.602,7.3-13.688,31.39c0.906,24.089,8.023,22.08,8.213,38.688
				c0.183,16.604-13.688,38.688-13.688,38.688s8.027-23.359,3.104-42.703c-4.933-19.345-10.402-26.097-10.402-26.097l2.374-12.773
				l9.123-20.069l13.688-9.854L349.699,155.143z"/>
		</g>
		<path fill="#021836" d="M336.39,485.402c0,0,79.028-47.588,110.562-51.237c31.533-3.646,28.613-6.198,32.634-10.22
			c4.014-4.015,32.111-9.489,35.396-18.249c3.285-8.76,12.153-3.926,23.6-12.547c-0.98-8.6-7.612-21.128-13.514-25.551
			c-5.896-4.422-10.075-20.883-31.448-43.484c-21.375-22.603-42.504-41.767-42.504-41.767s-9.82-39.062-33.901-56.751
			c-24.071-17.688-52.815-23.831-52.815-23.831c0.246-5.896-4.177-8.849-5.649-23.831c-1.477-14.987-7.617-39.56-13.021-36.605
			c-5.404,2.948-13.519,14.985-13.519,14.985s-22.848,25.552-34.884,35.132c-12.04,9.582-19.657,7.862-19.657,7.862
			s-13.268,8.354-14.002,8.6c-0.733,0.245-10.562,12.284-33.654,28.5c-23.099,16.214-34.15,56.751-40.05,75.182
			c-5.896,18.427-36.357,38.074-45.447,50.359c-9.095,12.284-10.812,23.584-10.812,23.584s46.594,24.543,69.953,28.193
			c23.358,3.65,39.418,36.134,50.004,40.878C264.243,459.349,316.559,468.023,336.39,485.402z M328.834,448.924
			c-19.716-6.271-32.245-16.585-32.245-16.585c0.926-17.319,30.956-55.646,30.956-55.646s-7.188,27.271-7.557,35.011
			c-0.367,7.738,0.555,11.606,4.978,20.641C329.386,441.364,328.834,448.924,328.834,448.924z M402.474,361.325
			c-13.542-4.788-31.012-5.167-40.034-27.646c0,0,2.054,16.799,8.688,22.512c6.639,5.712,8.936,5.021,12.807,13.678
			c0,0-16.771-7.554-25.803-7.554c-9.021,0-18.983,0.921-18.983,0.921s3.145-13.635,7.013-19.715
			c3.868-6.082,4.606-32.431,14.926-42.012c0,0-13.269-1.106-20.271,4.79c-7.001,5.896-17.871,16.952-23.954,17.505
			c0,0,16.77-0.367,28.562-7c0,0-12.159,30.771-35.379,55.646c-23.214,24.875-46.98,29.854-56.562,40.354
			c0,0-5.712-14.188-4.604-20.821c1.104-6.634,24.32-39.979,30.401-57.305s7.739-32.304,15.105-47.568
			c7.37-15.264,26.9-40.323,26.722-51.011c0,0-3.501,5.896-8.291,9.767c-4.791,3.869-21.007,23.031-29.854,34.271
			c-8.846,11.235-44.592,46.987-64.491,59.331c-19.896,12.346-52.695,21.006-63.197,29.479c0,0,5.896-9.212,15.479-17.506
			c9.581-8.291,13.722-13.958,18.471-19.969c2.604-3.296,22.438-15.039,31.647-24.804c9.213-9.771,16.032-23.591,28.562-33.905
			c12.528-10.317,14.559-18.431,21.188-24.143s30.467-5.771,45.636-24.998c0,0-13.391,8.783-28.128,7.683
			c0,0,2.024-3.138,4.978-5.159c2.946-2.026,8.844-4.979,12.715-9.028c3.866-4.055,15.847-8.66,15.847-8.66
			s10.318,3.688,10.688,12.35c0,0,2.211-5.348,1.104-14.93c-1.104-9.581-6.634-12.345-4.79-25.427
			c1.842-13.083,14.371-23.218,19.161-25.429c0,0-5.342,8.476,0,17.688c5.346,9.214-3.688,29.3,0,35.378
			c3.688,6.081,16.216,11.06,17.319,21.188c0,0,5.713-11.424,0-22.848c0,0,5.713,4.422,9.396,9.945
			c3.646,5.479,8.238,10.654,12.188,22.151c-0.449-2.12-2.011-6.606-0.697-12.265c0,0,1.354,1.119,7.617,5.354
			c6.266,4.239,21.919,11.021,28.088,21.789c0,0-7.319-2.555-10.27-2.187c0,0,27.011,31.852,35.854,36.644
			c8.848,4.79,13.45,16.217,17.688,20.82c4.232,4.604,21.559,21.188,23.771,25.979c0,0-3.972-1.821-14.714-5.784
			c-8.578-3.163-17.921-3.854-25.178-11.557c0,0,2.233,6.226,22.203,13.281c16.312,5.772,28.559,25.245,32.429,29.114
			c3.869,3.868-0.737-0.676,3.869,3.868c4.604,4.547,12.635,12.234-1.369,17.025c0,0,1.091,0.771,0.627-4.057
			c-0.344-3.604-1.479-5.588-2.121-6.416c-1.335-1.729-2.864-2.42-9.171-3.293c-8.212-1.135-12.854-5.829-16.796-6.927
			c-3.593-0.999-7.427-2.271-9.679-0.763c0,0,2.577-0.188,4.789,0.924c2.212,1.104,11.233,7,12.896,10.134
			c1.66,3.134,1.844,8.66,4.423,11.605c2.579,2.947,9.396,9.396,10.318,11.605c0,0-2.027,2.766-1.845,5.16
			c0.186,2.396-8.85,10.503-14.739,10.503c-5.896,0-16.399-4.055-21.927-14.561c0,0-13.191-15.115-18.435-36.401
			c-6.262-25.458-41.888-41.335-41.888-41.335s25.115,18.146,28.979,33.837c4.168,16.926,2.058,19.997,5.063,25.475
			C436.516,376.135,422.694,368.478,402.474,361.325z M410.348,375.929c0,0,27.218,8.021,34.296,20.438
			c7.079,12.41,16.934,16.062,16.934,16.062s-22.507,8.171-30.537-1.319C423.01,401.616,427.01,385.422,410.348,375.929z"/>
		<path fill="#021836" d="M384.687,246.396c0,0,2.248,13.067,12.37,19.396s8.434,8.438,8.434,8.438s-4.217-4.076-7.167-5.343
			c0,0,2.107,3.095,3.514,9.274c1.405,6.188,6.747,6.888,14.898,9.562c8.15,2.669,27.688,19.913,30.222,26.823
			c0,0-1.824-11.931-17.854-25.699c-16.021-13.775-30.225-36.826-31.203-40.345c0,0,2.11,9.417,4.499,13.493
			C402.399,261.997,386.375,252.44,384.687,246.396z"/>
		<path fill="#F23C07" d="M412.66,282.098c0,0-1.125-1.617-1.616-4.222c-0.494-2.601-1.761-4.427-3.938-6.531
			c-2.177-2.109-8.151-9.141-21.438-11.104c-13.278-1.967-24.598,3.444-33.237,4.218c-8.646,0.772-16.729-1.266-16.729-1.266
			s6.253,5.974,20.872,4.428c14.614-1.547,15.39-2.812,24.526-2.53c9.136,0.281,13.354,3.271,14.056,3.938
			c0,0-4.92-6.188-15.812-6.188c0,0,7.443-0.422,14.336,1.827c6.889,2.249,11.028,6.606,12.02,9.839
			c0.983,3.232,1.053,3.866,2.389,5.201S410.481,280.341,412.66,282.098z"/>
		<path fill="#F23C07" d="M319.192,200.045c-11.549,2.211-27.763,10.812-37.59,17.197c-9.828,6.388-12.773,11.793-30.956,15.479
			c-18.187,3.686-24.567,8.104-24.567,8.104c12.775-5.159,35.868-8.846,55.522-7.37c19.648,1.479,34.642-9.827,34.642-9.827
			c-20.793,25.366-56.016,21.133-73.458,35.377c-17.443,14.25-26.779,31.693-26.779,31.693c3.688-4.423,8.849-6.88,8.849-6.88
			c-3.688,2.703-16.706,22.357-39.312,41.029c-22.603,18.672-73.95,21.619-91.639,30.218c-17.688,8.604-18.265,12.521-18.265,12.521
			c1.643-9.154,6.117-14.56,15.009-21.511c15.021-11.749,31.754-14.104,44.284-35.479c8.334-14.224,14.735-21.621,14.735-21.621
			s-18.18,4.667-41.766-1.229c-23.585-5.896-36.36-25.306-36.36-25.306s21.375,6.634,43.485-0.981
			c22.112-7.612,35.133-42.011,58.473-56.752c23.339-14.737,43.979-20.637,43.979-20.637c-26.042-1.229-50.119,14.494-50.119,14.494
			s11.548-13.021,32.431-24.075c20.227-10.706,43.438-15.652,44.892-15.955c-1.265,0.258-19.775,3.865-32.112-4.438
			c-12.774-8.604-8.604-22.604-8.604-22.604c1.726,11.547,20.888,16.215,31.447,13.021c10.563-3.194,47.171-11.792,86.479-2.211
			c6.009,1.464,11.776,3.189,17.249,5.067c-3.688,4.242-6.853,8.937-6.853,8.937s-22.849,25.551-34.887,35.132
			c-5.432,4.324-9.961,6.343-13.297,7.26C284.111,198.706,300.826,195.746,319.192,200.045z"/>
		<path fill="#F23C07" d="M445.719,242.302c-0.491-22.111-14.249-38.591-20.889-45.827c-6.631-7.24-35.375-46.062-35.621-72.596
			c0,0-8.104,31.446,1.229,48.895c0,0-14.416-10.296-36.609-19.746c2.381,7.631,4.271,17.452,5,24.906
			c1.215,12.342,7.411,28.922,7.06,30.152c12.333,9.096,19.441,26.735,20.837,30.443c0,0-3.668-9.034-4.495-15.33
			c-0.479-3.659-1.729-6.604-2.534-7.938c1.666,2.273,12.062,10.646,21.56,14.998c11.792,5.4,19.654,11.547,22.854,15.723
			c3.19,4.178,13.332,24.969,27.021,36.36C451.119,282.347,446.205,264.413,445.719,242.302z"/>
		<g opacity="0.21">
			<path d="M75.548,367.737c0,0,6.938-16.788,47.812-30.293c40.878-13.505,78.473-44.527,78.473-44.527
				s-27.734,28.473-56.208,40.518c-28.47,12.044-39.418,17.519-41.604,20.438C101.827,356.787,75.548,367.737,75.548,367.737z"/>
			<path d="M71.534,262.257c0,0,24.817,31.394,69.347,20.438c44.528-10.948,90.879-40.147,112.054-43.798
				c0,0-20.25,7.312-34.312,18.249c-16.425,12.771-49.64,29.193-72.997,32.85C122.266,293.646,87.593,292.551,71.534,262.257z"/>
			<path d="M167.889,198.021c0,0,14.6-8.396,34.674-13.145c20.074-4.739,41.604-1.82,54.747-5.476c0,0-13.505,6.205-34.312,7.301
				c-20.805,1.095-45.983,14.233-53.647,20.438S167.889,198.021,167.889,198.021z"/>
			<path d="M205.847,147.289c0,0,4.016,9.489,22.265,8.76c18.249-0.729,27.191-8.938,57.303-7.665c0,0-23.104,1.979-43.615,10.401
				C221.359,167.18,205.847,147.289,205.847,147.289z"/>
			<path d="M380.582,217.456c0,0-3.832-23.812-13.141-39.688c0,0,10.129,11.497,16.146,29.837
				c6.021,18.34,3.017,16.146,3.017,16.146L380.582,217.456z"/>
			<path d="M420.821,228.132c0,0,9.033,13.96,9.581,26.279c0.547,12.317,18.066,26.825,18.066,26.825s-7.396-21.352-12.045-46.534
				l-18.613-24.363h-2.738c0,0,16.978,15.061,18.895,34.77C433.965,245.104,428.486,233.88,420.821,228.132z"/>
		</g>
		<path fill="#021836" d="M353.691,153.028c22.194,9.45,36.61,19.746,36.61,19.746c-9.34-17.443-1.229-48.895-1.229-48.895
			c0.245,26.533,28.989,65.354,35.621,72.596c6.634,7.235,20.396,23.716,20.883,45.827c0.49,22.106,5.404,40.045,5.404,40.045
			s-10.764-9.166-21.488-27.584l3.37,13.335l14.149,19.021l15.173,12.626l-5.216-19.039c-0.047-0.172-4.718-17.438-5.188-38.542
			c-0.383-17.214-7.957-33.996-22.51-49.881c-7.137-7.79-33.773-44.705-33.993-68.455c-0.035-9.044,1.497-13.95,1.497-13.95
			c-11.497,2.372-14.366,15.266-14.366,15.266c-0.266,1.025-4.271,16.671-2.308,34.009c-6.252-3.535-14.398-7.751-23.981-11.832
			l-6.45-2.746l0.062-0.068l-1.134-0.39l-4.831-2.057l0.139,0.441l-2.887-0.986c-5.962-2.052-11.948-3.812-17.793-5.231
			c-12.446-3.033-25.714-4.571-39.438-4.571c-25.595,0-44.979,5.265-50.312,6.872c-1.549,0.47-3.481,0.716-5.59,0.716
			c-7.863,0-17.156-3.573-17.925-8.71c-0.844-6.696,1.032-11.218,1.032-11.218c-10.583,1.824-13.393,11.396-13.393,11.396
			c-1.896,6.354-1.747,19.675,11.354,28.489c1.294,0.872,2.665,1.654,4.109,2.354c-5.336,2.08-10.914,4.54-16.323,7.401
			c-21.628,11.446-33.668,24.879-34.17,25.44l-30.39,34.271l19.209-12.478c-3.659,4.215-7.12,8.646-10.531,13.021
			c-9.163,11.733-17.817,22.822-27.995,26.33c-6.396,2.205-13.424,3.317-20.877,3.317c-10.77,0-18.683-2.378-18.749-2.396
			l-16.556-5.14l9.525,14.479c0.577,0.875,14.402,21.506,40.041,27.915c8.408,2.103,17.062,3.167,25.729,3.167
			c1.42,0,2.776-0.028,4.063-0.08c-1.986,2.987-4.229,6.524-6.613,10.604c-7.586,12.938-16.539,17.929-26.903,23.707
			c-5.195,2.896-10.567,5.89-15.853,10.021c-9.385,7.338-15.222,13.824-17.281,25.241l-0.041,0.24c0,0-1.067,13.104,10.606,15.113
			c0,0-2.556-6.938,1.067-11.521c0.094-0.133,2.446-3.302,15.438-9.617c5.885-2.854,17.093-5.271,28.953-7.836
			c22.748-4.905,48.53-10.466,63.924-23.18c16.045-13.254,27.284-26.854,34.006-34.981l-6.146-2.312
			c-6.674,8.049-17.256,20.479-31.812,32.508c-22.604,18.672-73.948,21.619-91.642,30.218
			c-17.084,8.311-18.204,12.241-18.261,12.501c-0.001,0.006-0.002,0.011-0.003,0.021c0,0,0.001-0.011,0.003-0.021
			c1.646-9.145,6.124-14.542,15.005-21.489c15.021-11.744,31.755-14.104,44.285-35.479c8.334-14.224,14.739-21.621,14.739-21.621
			s-18.184,4.667-41.769-1.229C84.176,281.857,71.4,262.447,71.4,262.447s21.375,6.634,43.486-0.981
			c22.107-7.612,35.132-42.011,58.472-56.752c23.34-14.737,43.977-20.637,43.977-20.637c-26.041-1.229-50.118,14.494-50.118,14.494
			s11.552-13.021,32.435-24.075c20.222-10.706,43.437-15.647,44.887-15.955c-1.26,0.258-19.771,3.865-32.109-4.438
			c-12.772-8.604-8.601-22.604-8.601-22.604c1.72,11.547,20.883,16.215,31.445,13.021c10.562-3.194,47.171-11.792,86.479-2.211
			c6.014,1.464,11.782,3.189,17.25,5.067"/>
		<g>
			<path fill="#FFFFFF" d="M100.29,345.733c0,0,14.495-10.318,45.452-22.848c30.954-12.53,33.411-17.198,33.411-17.198
				s-22.604,10.072-35.133,12.039c0,0,33.412-10.074,45.45-19.9c12.034-9.828,27.021-18.427,27.021-18.427
				s-11.057,9.09-14.987,13.268c-3.93,4.182-17.935,17.196-37.835,26.777C143.776,329.027,125.596,331.484,100.29,345.733z"/>
			<path fill="#FFFFFF" d="M279.636,236.467c0,0-24.142-2.022-43.673,3.87c-19.527,5.896-38.511,18.241-53.983,23.399
				c0,0,28.93-8.106,44.224-15.846c0,0-2.765,2.58-4.604,4.791c0,0,7.922-7.739,21.005-11.609
				C255.683,237.204,279.636,236.467,279.636,236.467z"/>
			<path fill="#FFFFFF" d="M121.542,262.448c0,0,24.689-7.002,46.438-16.951c21.744-9.95,23.217-15.663,37.59-23.954
				c0,0-13.636,1.848-25.796,6.817c0,0,19.348-12.897,40.721-17.688c21.374-4.791,30.219-3.312,30.219-3.312
				s-21.188-5.343-49.75,5.16c-28.562,10.503-37.771,22.479-37.771,22.479s13.269-14.926,33.167-24.508
				c19.896-9.582,41.271-10.502,54.726-9.213c13.451,1.29,33.354,1.659,40.169,2.022c0,0-4.976,0.926-14.188,4.979
				c-9.213,4.055-24.322,7.924-24.322,7.924s15.479-2.396,20.821-2.58c0,0-12.161,4.979-26.722,5.159
				c-14.559,0.185-28.188,4.976-36.668,8.107c-8.478,3.133-19.896,12.896-34.271,19.896
				C161.526,253.788,141.811,258.578,121.542,262.448z"/>
			<path fill="#FFFFFF" d="M214.961,172.897c0,0,19.722-11.607,48.646-13.083c28.93-1.479,39.98,3.87,43.67,2.765
				c0,0-2.212,6.633-23.032,7.002c-20.822,0.369-24.323-2.396-36.301-0.369c0,0,21.007-4.055,29.298-4.791
				c0,0-12.529-1.104-29.298,0.736C231.176,167.001,214.961,172.897,214.961,172.897z"/>
			<g>
				<path fill="#FFFFFF" d="M327.175,153.366c-4.421-0.554-15.656-0.186-15.656-0.186c7.356,0.465,13.997,1.97,19.968,4.213
					c0.625-0.691,0.975-1.081,0.975-1.081s0.812-1.208,2.101-2.951c-35.404-11.146-63.022-4.972-63.022-4.972
					C295.852,143.785,331.597,153.919,327.175,153.366z"/>
				<path fill="#FFFFFF" d="M356.827,164.191c0.862,4.142,1.546,8.312,1.979,12.022c15.392,16.77,20.888,36.479,20.888,36.479
					S380.083,182.281,356.827,164.191z"/>
			</g>
			<path fill="#FFFFFF" d="M438.1,248.996c0,0,0-21.373-8.293-36.852c-8.291-15.479-26.533-20.453-31.324-44.959
				c0,0,2.767,16.214,9.769,25.979c7.001,9.771,14.188,18.062,15.852,22.295c0,0-5.6-8.588-21.743-18.979
				c-21.188-13.635-24.14-24.321-24.14-24.321s4.422,12.528,19.896,24.321C413.594,208.275,432.204,220.99,438.1,248.996z"/>
		</g>
	</g>
</g>
</svg>